<svg xmlns="http://www.w3.org/2000/svg" viewBox="0 0 128 128">
  <rect width="128" height="128" rx="16" fill="#3178c6"/>
  <path fill="#ffffff" d="M37.3 84.7c1.7 2.6 4.3 4.8 7.8 6.4 3.5 1.7 7.5 2.5 12 2.5 4.3 0 7.9-.7 10.8-2.2 2.9-1.5 5.1-3.6 6.5-6.3 1.4-2.7 2.1-5.9 2.1-9.6 0-3.3-.6-6.1-1.9-8.4-1.2-2.3-3.1-4.2-5.5-5.8-2.4-1.6-5.8-3.1-10-4.6-3.8-1.3-6.6-2.5-8.4-3.6s-3.1-2.3-3.9-3.7c-.8-1.4-1.2-3.1-1.2-5.2 0-2.3.6-4.2 1.9-5.8 1.3-1.6 3.1-2.8 5.4-3.6 2.3-.8 5-1.2 8.1-1.2 3.1 0 5.8.4 8.1 1.3 2.3.9 4.2 2.2 5.6 3.9 1.4 1.7 2.3 3.8 2.7 6.1l11.4-4.8c-.8-3.8-2.4-7.1-4.8-9.8-2.4-2.7-5.6-4.8-9.5-6.3-3.9-1.5-8.5-2.2-13.8-2.2-5.2 0-9.8.8-13.8 2.4-4 1.6-7.2 3.9-9.5 6.9-2.3 3-3.5 6.7-3.5 11.1 0 3.6.7 6.7 2.1 9.2 1.4 2.5 3.5 4.6 6.2 6.3 2.7 1.7 6.3 3.3 10.7 4.8 4.1 1.4 7.1 2.7 8.9 3.9 1.8 1.2 3.1 2.5 3.9 4 .8 1.5 1.2 3.3 1.2 5.5 0 2.4-.7 4.5-2.1 6.2-1.4 1.7-3.4 3-6.1 3.9-2.7.9-5.9 1.3-9.6 1.3-4.1 0-7.7-.6-10.8-1.9-3.1-1.3-5.6-3.2-7.5-5.7-1.9-2.5-3.1-5.6-3.6-9.3l-11.7 4.8c.8 4.8 2.6 8.9 5.4 12.3zM114 36.4H90.8v75.1h-12.8V36.4H54.8V25.2H114v11.2z"/>
</svg>
